<svg width="20" height="21" viewBox="0 0 20 21" fill="none" xmlns="http://www.w3.org/2000/svg">
<g clip-path="url(#clip0_336_4164)">
<path d="M10 11.9811C11.2891 11.9811 12.4805 11.5997 13.4336 10.9516C14.1719 10.4554 15.1329 10.5374 15.7813 11.1567C17.5821 12.8712 18.6055 15.3034 18.6016 17.8587V18.9538C18.6016 20.0858 17.7266 21.0005 16.6485 21.0005H3.35161C2.27348 21.0005 1.39848 20.0858 1.39848 18.9538V17.8587C1.39067 15.3075 2.41411 12.8712 4.21489 11.1608C4.86333 10.5415 5.82817 10.4595 6.56254 10.9557C7.51958 11.5997 8.70708 11.9811 10 11.9811Z" fill="#0066EE"/>
<path d="M10 10.1555C12.6708 10.1555 14.8359 7.88209 14.8359 5.07773C14.8359 2.27338 12.6708 0 10 0C7.32919 0 5.16406 2.27338 5.16406 5.07773C5.16406 7.88209 7.32919 10.1555 10 10.1555Z" fill="#0066EE"/>
</g>
<defs>
<clipPath id="clip0_336_4164">
<rect width="20" height="21" fill="white"/>
</clipPath>
</defs>
</svg>
